# MagicaVoxel @ Ephtracy

# group
o 

# material
mtllib cuberun_player-63.mtl
usemtl palette

# normals
vn -1 0 0
vn 1 0 0
vn 0 0 1
vn 0 0 -1
vn 0 -1 0
vn 0 1 0

# texcoords
vt 0.658203 0.5
vt 0.970703 0.5

# verts
v 0.2 0.2 0.4
v 0.2 0.2 0.2
v 0.2 0.3 0.4
v 0.2 0.3 0.3
v 0.2 0.4 0.4
v 0.2 0.4 0.3
v 0.2 0.4 0.2
v 0.4 0.2 0.4
v 0.4 0.2 0.3
v 0.4 0.2 0.2
v 0.4 0.3 0.3
v 0.4 0.3 0.2
v 0.4 0.4 0.4
v 0.4 0.4 0.2
v 0.2 0.2 0.4
v 0.2 0.3 0.4
v 0.2 0.4 0.4
v 0.3 0.2 0.4
v 0.3 0.3 0.4
v 0.4 0.2 0.4
v 0.4 0.4 0.4
v 0.2 0.2 0.2
v 0.2 0.4 0.2
v 0.3 0.3 0.2
v 0.3 0.4 0.2
v 0.4 0.2 0.2
v 0.4 0.3 0.2
v 0.4 0.4 0.2
v 0.2 0.2 0.4
v 0.3 0.2 0.4
v 0.4 0.2 0.4
v 0.3 0.2 0.3
v 0.4 0.2 0.3
v 0.2 0.2 0.2
v 0.4 0.2 0.2
v 0.2 0.4 0.4
v 0.4 0.4 0.4
v 0.2 0.4 0.3
v 0.3 0.4 0.3
v 0.2 0.4 0.2
v 0.3 0.4 0.2
v 0.4 0.4 0.2

# faces
f 3/1/1 2/1/1 1/1/1
f 4/1/1 2/1/1 3/1/1
f 5/2/1 4/2/1 3/2/1
f 6/1/1 2/1/1 4/1/1
f 6/2/1 4/2/1 5/2/1
f 7/1/1 2/1/1 6/1/1
f 8/2/2 9/2/2 11/2/2
f 9/1/2 10/1/2 11/1/2
f 11/1/2 10/1/2 12/1/2
f 8/2/2 11/2/2 13/2/2
f 11/2/2 12/2/2 13/2/2
f 13/2/2 12/2/2 14/2/2
f 18/1/3 16/1/3 15/1/3
f 19/2/3 17/2/3 16/2/3
f 19/1/3 16/1/3 18/1/3
f 20/2/3 19/2/3 18/2/3
f 21/2/3 17/2/3 19/2/3
f 21/2/3 19/2/3 20/2/3
f 22/1/4 23/1/4 24/1/4
f 24/1/4 23/1/4 25/1/4
f 22/1/4 24/1/4 26/1/4
f 24/2/4 25/2/4 27/2/4
f 26/1/4 24/1/4 27/1/4
f 27/2/4 25/2/4 28/2/4
f 32/1/5 30/1/5 29/1/5
f 32/2/5 31/2/5 30/2/5
f 33/2/5 31/2/5 32/2/5
f 34/1/5 32/1/5 29/1/5
f 34/1/5 33/1/5 32/1/5
f 35/1/5 33/1/5 34/1/5
f 36/2/6 37/2/6 38/2/6
f 38/2/6 37/2/6 39/2/6
f 38/1/6 39/1/6 40/1/6
f 39/2/6 37/2/6 41/2/6
f 40/1/6 39/1/6 41/1/6
f 41/2/6 37/2/6 42/2/6
